<svg xmlns="http://www.w3.org/2000/svg" xmlns:xlink="http://www.w3.org/1999/xlink" width="640" height="640" version="1.1" viewBox="0 0 640 640"><title>avatar-circle</title><desc>Created with Sketch.</desc><g id="Page-1" fill="none" fill-rule="evenodd" stroke="none" stroke-width="1"><g id="Artboard-Copy" transform="translate(-141.000000, -80.000000)"><g id="avatar-circle" transform="translate(141.000000, 80.000000)"><g id="Group-2"><circle id="Oval" cx="320" cy="320" r="320" fill="#FF00A3"/><circle id="Oval" cx="320" cy="320" r="288" fill="#8C00FF"/><circle id="Oval" cx="320" cy="320" r="264" fill="#00FAFF"/><circle id="Oval" cx="320" cy="320" r="232" fill="#00FF2C"/><circle id="Oval" cx="320" cy="320" r="192" fill="#A9FF00"/><circle id="Oval" cx="320" cy="320" r="128" fill="#FFDB00"/><circle id="Oval" cx="320" cy="320" r="72" fill="red"/></g><g id="tamagui-icon" transform="translate(109.000000, 120.000000)"><g id="Group" fill="#FC00BE" transform="translate(30.000000, 30.000000)"><g id="Rectangle-Copy-8"><path d="M300,0 L300,30 L364,30 L364,60 L420,60 L420,150 L364,150 L364,180 L300,180 L300,300 L270,300 L270,360 L60,360 L60,300 L0,300 L0,60 L60,60 L60,0 L300,0 Z"/></g></g><g id="guy" fill="#141414"><g transform="translate(225.000000, 210.000000) scale(-1, 1) translate(-225.000000, -210.000000)"><rect id="Rectangle-Copy" width="30" height="30" x="150" y="0"/><rect id="Rectangle-Copy-2" width="30" height="30" x="180" y="0"/><rect id="Rectangle-Copy-3" width="30" height="30" x="210" y="0"/><rect id="Rectangle-Copy-28" width="30" height="30" x="240" y="0"/><rect id="Rectangle-Copy-4" width="30" height="30" x="270" y="0"/><rect id="Rectangle-Copy-5" width="30" height="30" x="300" y="0"/><rect id="Rectangle-Copy-6" width="30" height="30" x="330" y="30"/><rect id="Rectangle-Copy-7" width="30" height="30" x="360" y="60"/><rect id="Rectangle-Copy-8" width="30" height="30" x="390" y="90"/><rect id="Rectangle-Copy-10" width="30" height="30" x="390" y="120"/><rect id="Rectangle-Copy-11" width="30" height="30" x="390" y="150"/><rect id="Rectangle-Copy-12" width="30" height="30" x="390" y="180"/><rect id="Rectangle-Copy-13" width="30" height="30" x="420" y="210"/><rect id="Rectangle-Copy-14" width="30" height="30" x="420" y="240"/><rect id="Rectangle-Copy-15" width="30" height="30" x="420" y="270"/><rect id="Rectangle-Copy-16" width="30" height="30" x="390" y="300"/><rect id="Rectangle-Copy-17" width="30" height="30" x="360" y="330"/><rect id="Rectangle-Copy-18" width="30" height="30" x="330" y="360"/><rect id="Rectangle-Copy-20" width="30" height="30" x="300" y="390"/><rect id="Rectangle-Copy-21" width="30" height="30" x="270" y="390"/><rect id="Rectangle-Copy-22" width="30" height="30" x="240" y="360"/><rect id="Rectangle-Copy-23" width="30" height="30" x="210" y="360"/><rect id="Rectangle-Copy-24" width="30" height="30" x="210" y="390"/><rect id="Rectangle-Copy-25" width="30" height="30" x="180" y="390"/><rect id="Rectangle-Copy-26" width="30" height="30" x="150" y="360"/><rect id="Rectangle-Copy-27" width="30" height="30" x="150" y="330"/><rect id="Rectangle-Copy-29" width="30" height="30" x="120" y="300"/><rect id="Rectangle-Copy-30" width="30" height="30" x="90" y="240"/><rect id="Rectangle-Copy-32" width="30" height="30" x="90" y="270"/><rect id="Rectangle-Copy-31" width="30" height="30" x="90" y="210"/><rect id="Rectangle-Copy-33" width="30" height="30" x="60" y="180"/><rect id="Rectangle-Copy-34" width="30" height="30" x="30" y="180"/><rect id="Rectangle-Copy-35" width="30" height="30" x="0" y="150"/><rect id="Rectangle-Copy-36" width="30" height="30" x="30" y="120"/><rect id="Rectangle-Copy-37" width="30" height="30" x="60" y="120"/><rect id="Rectangle-Copy-38" width="30" height="30" x="90" y="120"/><rect id="Rectangle-Copy-39" width="30" height="30" x="0" y="90"/><rect id="Rectangle-Copy-44" width="30" height="30" x="0" y="120"/><rect id="Rectangle-Copy-40" width="30" height="30" x="30" y="60"/><rect id="Rectangle-Copy-40" width="30" height="30" x="30" y="60"/><rect id="Rectangle-Copy-41" width="30" height="30" x="60" y="60"/><rect id="Rectangle-Copy-42" width="30" height="30" x="120" y="30"/><rect id="Rectangle-Copy-45" width="30" height="30" x="150" y="60"/><rect id="Rectangle-Copy-46" width="30" height="30" x="240" y="90"/><rect id="Rectangle-Copy-47" width="30" height="30" x="240" y="210"/><rect id="Rectangle-Copy-48" width="30" height="30" x="240" y="240"/><rect id="Rectangle-Copy-49" width="30" height="30" x="270" y="270"/><rect id="Rectangle-Copy-50" width="30" height="30" x="300" y="240"/><rect id="Rectangle-Copy-51" width="30" height="30" x="300" y="210"/><rect id="Rectangle-Copy-43" width="30" height="30" x="90" y="60"/></g></g></g></g></g></g></svg>