<svg xmlns="http://www.w3.org/2000/svg" xmlns:xlink="http://www.w3.org/1999/xlink" width="1500" height="730" version="1.1" viewBox="0 0 1500 730"><defs><path id="path-1" d="M0.5,0 L1756.5,0 L1756.5,840 L0.5,840 L0.5,0 Z M142,65 L1618,65 L1618,773 L142,773 L142,65 Z"/></defs><g fill="none" fill-rule="evenodd" stroke="none" stroke-width="1"><g transform="translate(-130.000000, -54.000000)"><mask id="mask-2" fill="#fff"><use xlink:href="#path-1"/></mask><use id="Mask-2" xlink:href="#path-1"/><g transform="translate(119.000000, -133.000000)"><polygon fill="rgba(125,125,125,0.1)" points="912 145 1511 187 1511 542 1511 917 912 1012"/><polygon fill="rgba(125,125,125,0.1)" points="853 36 912 36 912 1019 853 1019"/><polygon fill="rgba(125,125,125,0.1)" points="794 111 853 111 853 978 794 978"/><polygon fill="rgba(125,125,125,0.1)" points="735 17 794 17 794 1000 735 1000"/><polygon fill="rgba(125,125,125,0.1)" points="676 0 735 0 735 1012 676 1012"/><polygon fill="rgba(125,125,125,0.1)" points="11 187 617.032 171 617.032 1023 11 917 0 534"/><polygon fill="rgba(125,125,125,0.1)" points="617 159 676 159 676 978 617 978 617 558"/></g></g><g fill="#77777755" opacity="1"><g transform="translate(985.000000, 310.000000) translate(224.500000, 209.500000) scale(-1, 1) translate(-224.500000, -209.500000)"><g id="guy"><rect width="22" height="22" x="150" y="0"/><rect width="22" height="22" x="180" y="0"/><rect width="22" height="22" x="210" y="0"/><rect width="22" height="22" x="240" y="0"/><rect width="22" height="22" x="270" y="0"/><rect width="22" height="22" x="300" y="0"/><rect width="22" height="22" x="330" y="30"/><rect width="22" height="22" x="360" y="60"/><rect width="22" height="22" x="390" y="90"/><rect width="22" height="22" x="390" y="120"/><rect width="22" height="22" x="390" y="150"/><rect width="22" height="22" x="390" y="180"/><rect width="22" height="22" x="420" y="210"/><rect width="22" height="22" x="420" y="240"/><rect width="22" height="22" x="420" y="270"/><rect width="22" height="22" x="390" y="300"/><rect width="22" height="22" x="420" y="300"/><rect width="22" height="22" x="390" y="330"/><rect width="22" height="22" x="360" y="330"/><rect width="22" height="22" x="360" y="360"/><rect width="22" height="22" x="330" y="360"/><rect width="22" height="22" x="330" y="390"/><rect width="22" height="22" x="300" y="390"/><rect width="22" height="22" x="270" y="390"/><rect width="22" height="22" x="240" y="360"/><rect width="22" height="22" x="210" y="360"/><rect width="22" height="22" x="210" y="390"/><rect width="22" height="22" x="180" y="390"/><rect width="22" height="22" x="150" y="360"/><rect width="22" height="22" x="150" y="330"/><rect width="22" height="22" x="120" y="300"/><rect width="22" height="22" x="90" y="240"/><rect width="22" height="22" x="90" y="270"/><rect width="22" height="22" x="90" y="210"/><rect width="22" height="22" x="60" y="180"/><rect width="22" height="22" x="30" y="180"/><rect width="22" height="22" x="0" y="150"/><rect width="22" height="22" x="30" y="120"/><rect width="22" height="22" x="60" y="120"/><rect width="22" height="22" x="90" y="120"/><rect width="22" height="22" x="0" y="90"/><rect width="22" height="22" x="0" y="120"/><rect width="22" height="22" x="30" y="60"/><rect width="22" height="22" x="60" y="60"/><rect width="22" height="22" x="120" y="30"/><rect width="22" height="22" x="150" y="60"/><rect width="22" height="22" x="255" y="90"/><rect width="22" height="22" x="255" y="210"/><rect width="22" height="22" x="255" y="240"/><rect width="22" height="22" x="285" y="270"/><rect width="22" height="22" x="315" y="240"/><rect width="22" height="22" x="315" y="210"/><rect width="22" height="22" x="90" y="60"/></g></g></g><g id="words" transform="translate(527.000000, 335.000000)"><path fill="#777" d="M399.451613,0 L399.451613,5.90322581 L405.354839,5.90322581 L405.354839,55.0967742 L399.451613,55.0967742 L399.451613,61 L354.193548,61 L354.193548,0 L399.451613,0 Z M385.677419,11.8064516 L369.935484,11.8064516 L369.935484,51.1612903 L385.677419,51.1612903 L385.677419,11.8064516 Z"/><path fill="#777" d="M354.193548,0 L354.193548,61 L295.16129,61 L295.16129,0 L354.193548,0 Z M320.741935,11.8064516 L305,11.8064516 L305,43.2903226 L312.870968,43.2903226 L312.870968,51.1612903 L336.483871,51.1612903 L336.483871,43.2903226 L344.354839,43.2903226 L344.354839,11.8064516 L328.612903,11.8064516 L328.612903,43.2903226 L320.741935,43.2903226 L320.741935,11.8064516 Z"/><path id="Rectangle-2" fill="#777" d="M295.16129,0 L295.16129,61 L236.129032,61 L236.129032,0 L295.16129,0 Z M285.322581,11.8064516 L253.83871,11.8064516 L253.83871,19.6774194 L245.967742,19.6774194 L245.967742,43.2903226 L253.83871,43.2903226 L253.83871,51.1612903 L277.451613,51.1612903 L277.451613,43.2903226 L285.322581,43.2903226 L285.322581,27.5483871 L269.580645,27.5483871 L269.580645,43.2903226 L261.709677,43.2903226 L261.709677,19.6774194 L285.322581,19.6774194 L285.322581,11.8064516 Z"/><path fill="#777" d="M236.129032,0 L236.129032,61 L177.096774,61 L177.096774,0 L236.129032,0 Z M218.419355,11.8064516 L194.806452,11.8064516 L194.806452,19.6774194 L186.935484,19.6774194 L186.935484,51.1612903 L202.677419,51.1612903 L202.677419,35.4193548 L210.548387,35.4193548 L210.548387,51.1612903 L226.290323,51.1612903 L226.290323,19.6774194 L218.419355,19.6774194 L218.419355,11.8064516 Z M210.548387,19.6774194 L210.548387,27.5483871 L202.677419,27.5483871 L202.677419,19.6774194 L210.548387,19.6774194 Z"/><path fill="#777" d="M118.064516,0 L177.096774,0 L177.096774,61 L118.064516,61 L118.064516,0 Z M143.645161,51.1612903 L143.645161,33.4516129 L151.516129,33.4516129 L151.516129,51.1612903 L167.258065,51.1612903 L167.258065,11.8064516 L155.451613,11.8064516 L155.451613,19.6774194 L139.709677,19.6774194 L139.709677,11.8064516 L127.903226,11.8064516 L127.903226,51.1612903 L143.645161,51.1612903 Z"/><path fill="#777" d="M118.064516,0 L118.064516,61 L59.0322581,61 L59.0322581,0 L118.064516,0 Z M100.354839,11.8064516 L76.7419355,11.8064516 L76.7419355,19.6774194 L68.8709677,19.6774194 L68.8709677,51.1612903 L84.6129032,51.1612903 L84.6129032,35.4193548 L92.483871,35.4193548 L92.483871,51.1612903 L108.225806,51.1612903 L108.225806,19.6774194 L100.354839,19.6774194 L100.354839,11.8064516 Z M92.483871,19.6774194 L92.483871,27.5483871 L84.6129032,27.5483871 L84.6129032,19.6774194 L92.483871,19.6774194 Z"/><path fill="#777" d="M59.0322581,0 L59.0322581,61 L5.90322581,61 L5.90322581,55.0967742 L-1.42108547e-14,55.0967742 L-1.42108547e-14,5.90322581 L5.90322581,5.90322581 L5.90322581,0 L59.0322581,0 Z M45.2580645,11.8064516 L13.7741935,11.8064516 L13.7741935,19.6774194 L21.6451613,19.6774194 L21.6451613,51.1612903 L37.3870968,51.1612903 L37.3870968,19.6774194 L45.2580645,19.6774194 L45.2580645,11.8064516 Z"/></g></g></svg>