<svg xmlns="http://www.w3.org/2000/svg" xmlns:xlink="http://www.w3.org/1999/xlink" width="32" height="32" version="1.1" viewBox="0 0 32 32"><style>rect{fill:#000}@media (prefers-color-scheme:dark){rect{fill:#fff}}</style><g id="favicon" fill="none" fill-rule="evenodd" stroke="none" stroke-width="1"><g id="tamagui-icon-copy" fill="#141414" transform="translate(16.000000, 16.000000) scale(-1, 1) translate(-16.000000, -16.000000) translate(1.000000, 2.000000)"><g id="guy"><rect width="2" height="2" x="10" y="0"/><rect width="2" height="2" x="12" y="0"/><rect width="2" height="2" x="14" y="0"/><rect width="2" height="2" x="16" y="0"/><rect width="2" height="2" x="18" y="0"/><rect width="2" height="2" x="20" y="0"/><rect width="2" height="2" x="22" y="2"/><rect width="2" height="2" x="24" y="4"/><rect width="2" height="2" x="26" y="6"/><rect width="2" height="2" x="26" y="8"/><rect width="2" height="2" x="26" y="10"/><rect width="2" height="2" x="26" y="12"/><rect width="2" height="2" x="28" y="14"/><rect width="2" height="2" x="28" y="16"/><rect width="2" height="2" x="28" y="18"/><rect width="2" height="2" x="26" y="20"/><rect width="2" height="2" x="24" y="22"/><rect width="2" height="2" x="22" y="24"/><rect width="2" height="2" x="20" y="26"/><rect width="2" height="2" x="18" y="26"/><rect width="2" height="2" x="16" y="24"/><rect width="2" height="2" x="14" y="24"/><rect width="2" height="2" x="14" y="26"/><rect width="2" height="2" x="12" y="26"/><rect width="2" height="2" x="10" y="24"/><rect width="2" height="2" x="10" y="22"/><rect width="2" height="2" x="8" y="20"/><rect width="2" height="2" x="6" y="16"/><rect width="2" height="2" x="6" y="18"/><rect width="2" height="2" x="6" y="14"/><rect width="2" height="2" x="4" y="12"/><rect width="2" height="2" x="2" y="12"/><rect width="2" height="2" x="0" y="10"/><rect width="2" height="2" x="2" y="8"/><rect width="2" height="2" x="4" y="8"/><rect width="2" height="2" x="6" y="8"/><rect width="2" height="2" x="0" y="6"/><rect width="2" height="2" x="0" y="8"/><rect width="2" height="2" x="2" y="4"/><rect width="2" height="2" x="2" y="4"/><rect width="2" height="2" x="4" y="4"/><rect width="2" height="2" x="8" y="2"/><rect width="2" height="2" x="10" y="4"/><rect width="2" height="2" x="16" y="6"/><rect width="2" height="2" x="16" y="14"/><rect width="2" height="2" x="16" y="16"/><rect width="2" height="2" x="18" y="18"/><rect width="2" height="2" x="20" y="16"/><rect width="2" height="2" x="20" y="14"/><rect width="2" height="2" x="6" y="4"/></g></g></g></svg>